<?xml version="1.0" encoding="utf-8"?>
<!-- Generator: Adobe Illustrator 21.0.2, SVG Export Plug-In . SVG Version: 6.00 Build 0)  -->
<svg version="1.1" id="Layer_1" xmlns="http://www.w3.org/2000/svg" x="0px" y="0px"
	 viewBox="0 0 100 100" style="enable-background:new 0 0 100 100;" xml:space="preserve">
<path d="M19,50.6c0,0.1,0,0.3,0,0.4c0,0.5-0.2,1-0.6,1.4c-0.1,0.1-0.2,0.2-0.3,0.2c-0.1,0.1-0.2,0.1-0.3,0.2c-0.1,0-0.2,0.1-0.4,0.1
	c-0.1,0-0.3,0-0.4,0c-0.5,0-1-0.2-1.4-0.6C15.2,52,15,51.5,15,51c0-0.1,0-0.3,0-0.4c0-0.1,0.1-0.2,0.1-0.4c0-0.1,0.1-0.2,0.2-0.3
	c0.1-0.1,0.1-0.2,0.2-0.3c0.1-0.1,0.2-0.2,0.3-0.2c0.1-0.1,0.2-0.1,0.3-0.2c0.1-0.1,0.2-0.1,0.4-0.1c0.6-0.1,1.3,0.1,1.8,0.5
	c0.1,0.1,0.2,0.2,0.2,0.3c0.1,0.1,0.1,0.2,0.2,0.3C18.9,50.4,18.9,50.5,19,50.6z M18.8,58.2c0-0.1-0.1-0.2-0.2-0.3
	c-0.1-0.1-0.1-0.2-0.2-0.3c-0.1-0.1-0.2-0.2-0.3-0.2s-0.2-0.1-0.3-0.2c-0.1,0-0.2-0.1-0.4-0.1c-0.3,0-0.5,0-0.8,0
	c-0.1,0-0.2,0.1-0.4,0.1c-0.1,0.1-0.2,0.1-0.4,0.2c-0.1,0.1-0.2,0.2-0.3,0.2c-0.1,0.1-0.2,0.2-0.2,0.3c-0.1,0.1-0.1,0.2-0.2,0.3
	c-0.1,0.1-0.1,0.2-0.1,0.4c0,0.1,0,0.3,0,0.4c0,0.5,0.2,1,0.6,1.4C16,60.8,16.5,61,17,61c0.1,0,0.3,0,0.4,0c0.1,0,0.3-0.1,0.4-0.1
	c0.1,0,0.2-0.1,0.3-0.2c0.1-0.1,0.2-0.2,0.3-0.2C18.8,60,19,59.5,19,59c0-0.1,0-0.3,0-0.4C18.9,58.5,18.9,58.3,18.8,58.2z
	 M18.8,66.2c0-0.1-0.1-0.2-0.2-0.3c-0.1-0.1-0.1-0.2-0.2-0.3c-0.5-0.5-1.2-0.7-1.8-0.5c-0.1,0-0.2,0.1-0.4,0.1
	c-0.1,0.1-0.2,0.1-0.4,0.2c-0.1,0.1-0.2,0.2-0.3,0.2c-0.1,0.1-0.2,0.2-0.2,0.3c-0.1,0.1-0.1,0.2-0.2,0.3c-0.1,0.1-0.1,0.2-0.1,0.4
	c0,0.1,0,0.3,0,0.4c0,0.5,0.2,1,0.6,1.4c0.2,0.2,0.4,0.3,0.7,0.4C16.5,69,16.7,69,17,69s0.5,0,0.8-0.2c0.2-0.1,0.5-0.2,0.6-0.4
	C18.8,68,19,67.5,19,67c0-0.1,0-0.3,0-0.4C18.9,66.5,18.9,66.3,18.8,66.2z M24.8,50.2c0-0.1-0.1-0.2-0.2-0.3
	c-0.1-0.1-0.1-0.2-0.2-0.3c-0.5-0.5-1.1-0.7-1.8-0.5c-0.1,0-0.2,0.1-0.4,0.1c-0.1,0-0.2,0.1-0.3,0.2c-0.1,0.1-0.2,0.1-0.3,0.2
	c-0.1,0.1-0.2,0.2-0.2,0.3c-0.1,0.1-0.1,0.2-0.2,0.3c-0.1,0.1-0.1,0.2-0.1,0.4c0,0.1,0,0.3,0,0.4c0,0.5,0.2,1,0.6,1.4
	C22,52.8,22.5,53,23,53c0.5,0,1-0.2,1.4-0.6C24.8,52,25,51.5,25,51c0-0.1,0-0.3,0-0.4C24.9,50.5,24.9,50.4,24.8,50.2z M24.8,58.2
	c0-0.1-0.1-0.2-0.2-0.3c-0.1-0.1-0.1-0.2-0.2-0.3c-0.7-0.7-2.1-0.7-2.8,0c-0.1,0.1-0.2,0.2-0.2,0.3c-0.1,0.1-0.1,0.2-0.2,0.3
	c-0.1,0.1-0.1,0.2-0.1,0.4c0,0.1,0,0.3,0,0.4c0,0.5,0.2,1,0.6,1.4C22,60.8,22.5,61,23,61c0.5,0,1-0.2,1.4-0.6C24.8,60,25,59.5,25,59
	c0-0.1,0-0.3,0-0.4C24.9,58.5,24.9,58.3,24.8,58.2z M24.8,66.2c0-0.1-0.1-0.2-0.2-0.3c-0.1-0.1-0.1-0.2-0.2-0.3
	c-0.5-0.5-1.2-0.7-1.8-0.5c-0.1,0-0.2,0.1-0.4,0.1c-0.1,0.1-0.2,0.1-0.4,0.2c-0.1,0.1-0.2,0.2-0.3,0.2c-0.1,0.1-0.2,0.2-0.2,0.3
	c-0.1,0.1-0.1,0.2-0.2,0.3c-0.1,0.1-0.1,0.2-0.1,0.4c0,0.1,0,0.3,0,0.4c0,0.5,0.2,1,0.6,1.4c0.2,0.2,0.4,0.3,0.7,0.4
	C22.5,69,22.7,69,23,69s0.5,0,0.8-0.2c0.2-0.1,0.5-0.2,0.6-0.4C24.8,68,25,67.5,25,67c0-0.1,0-0.3,0-0.4
	C24.9,66.5,24.9,66.3,24.8,66.2z M30.8,50.2c0-0.1-0.1-0.2-0.2-0.3c-0.1-0.1-0.1-0.2-0.2-0.3c-0.8-0.8-2.1-0.8-2.8,0
	c-0.1,0.1-0.2,0.2-0.2,0.3c-0.1,0.1-0.1,0.2-0.2,0.3c-0.1,0.1-0.1,0.2-0.1,0.4c0,0.1,0,0.3,0,0.4c0,0.5,0.2,1,0.6,1.4
	c0.1,0.1,0.2,0.2,0.3,0.2c0.1,0.1,0.2,0.1,0.3,0.2c0.1,0,0.2,0.1,0.4,0.1c0.1,0,0.3,0,0.4,0c0.5,0,1-0.2,1.4-0.6
	C30.8,52,31,51.5,31,51c0-0.1,0-0.3,0-0.4C30.9,50.5,30.9,50.4,30.8,50.2z M30.8,58.2c0-0.1-0.1-0.2-0.2-0.3
	c-0.1-0.1-0.1-0.2-0.2-0.3c-0.7-0.7-2.1-0.7-2.8,0c-0.1,0.1-0.2,0.2-0.2,0.3c-0.1,0.1-0.1,0.2-0.2,0.3c-0.1,0.1-0.1,0.2-0.1,0.4
	c0,0.1,0,0.3,0,0.4c0,0.5,0.2,1,0.6,1.4C28,60.8,28.5,61,29,61c0.3,0,0.5,0,0.8-0.2c0.2-0.1,0.5-0.2,0.6-0.4C30.8,60,31,59.5,31,59
	c0-0.1,0-0.3,0-0.4C30.9,58.5,30.9,58.3,30.8,58.2z M30.8,66.2c0-0.1-0.1-0.2-0.2-0.3c-0.1-0.1-0.1-0.2-0.2-0.3
	c-0.5-0.5-1.2-0.7-1.8-0.5c-0.1,0-0.2,0.1-0.4,0.1c-0.1,0.1-0.2,0.1-0.4,0.2c-0.1,0.1-0.2,0.2-0.3,0.2c-0.1,0.1-0.2,0.2-0.2,0.3
	c-0.1,0.1-0.1,0.2-0.2,0.3c-0.1,0.1-0.1,0.2-0.1,0.4c0,0.1,0,0.3,0,0.4c0,0.5,0.2,1,0.6,1.4c0.2,0.2,0.4,0.3,0.7,0.4
	C28.5,69,28.7,69,29,69s0.5,0,0.8-0.2c0.2-0.1,0.5-0.2,0.6-0.4C30.8,68,31,67.5,31,67c0-0.1,0-0.3,0-0.4
	C30.9,66.5,30.9,66.3,30.8,66.2z M46.8,40.2c0-0.1-0.1-0.2-0.2-0.3c-0.1-0.1-0.1-0.2-0.2-0.3c-0.1-0.1-0.2-0.2-0.3-0.2
	s-0.2-0.1-0.4-0.2c-0.1-0.1-0.2-0.1-0.4-0.1c-0.6-0.1-1.3,0.1-1.8,0.5c-0.1,0.1-0.2,0.2-0.2,0.3c-0.1,0.1-0.1,0.2-0.2,0.3
	c-0.1,0.1-0.1,0.2-0.1,0.4c0,0.1,0,0.3,0,0.4c0,0.1,0,0.3,0,0.4c0,0.1,0.1,0.2,0.1,0.4c0,0.1,0.1,0.2,0.2,0.3
	c0.1,0.1,0.1,0.2,0.2,0.3C44,42.8,44.5,43,45,43c0.1,0,0.3,0,0.4,0c0.1,0,0.2-0.1,0.4-0.1c0.1,0,0.2-0.1,0.4-0.2
	c0.1-0.1,0.2-0.1,0.3-0.2C46.8,42,47,41.5,47,41c0-0.1,0-0.3,0-0.4C46.9,40.5,46.9,40.4,46.8,40.2z M43.6,47.6
	C43.2,48,43,48.5,43,49c0,0.5,0.2,1,0.6,1.4C44,50.8,44.5,51,45,51c0.5,0,1-0.2,1.4-0.6C46.8,50,47,49.5,47,49c0-0.5-0.2-1-0.6-1.4
	C45.7,46.8,44.3,46.8,43.6,47.6z M46.1,55.3c-0.1-0.1-0.2-0.1-0.3-0.2c-0.1,0-0.2-0.1-0.4-0.1c-0.6-0.1-1.3,0.1-1.8,0.5
	C43.2,56,43,56.5,43,57s0.2,1,0.6,1.4C44,58.8,44.5,59,45,59c0.5,0,1-0.2,1.4-0.6C46.8,58,47,57.5,47,57s-0.2-1-0.6-1.4
	C46.3,55.5,46.2,55.4,46.1,55.3z M52.8,40.2c0-0.1-0.1-0.2-0.2-0.3c-0.1-0.1-0.2-0.2-0.2-0.3c-0.1-0.1-0.2-0.2-0.3-0.2
	c-0.1-0.1-0.2-0.1-0.3-0.2c-0.1-0.1-0.2-0.1-0.4-0.1c-0.3-0.1-0.5-0.1-0.8,0c-0.1,0-0.2,0.1-0.4,0.1c-0.1,0-0.2,0.1-0.3,0.2
	c-0.1,0.1-0.2,0.1-0.3,0.2c-0.1,0.1-0.2,0.2-0.2,0.3c-0.1,0.1-0.1,0.2-0.2,0.3c-0.1,0.1-0.1,0.2-0.1,0.4c0,0.1,0,0.3,0,0.4
	c0,0.5,0.2,1,0.6,1.4c0.1,0.1,0.2,0.2,0.3,0.2c0.1,0.1,0.2,0.1,0.3,0.2c0.1,0.1,0.2,0.1,0.4,0.1c0.1,0,0.3,0,0.4,0
	c0.1,0,0.3,0,0.4,0c0.1,0,0.2-0.1,0.4-0.1c0.1,0,0.2-0.1,0.3-0.2c0.1-0.1,0.2-0.1,0.3-0.2C52.8,42,53,41.5,53,41c0-0.1,0-0.3,0-0.4
	C52.9,40.5,52.9,40.4,52.8,40.2z M50.6,47c-0.1,0-0.2,0.1-0.4,0.1c-0.1,0-0.2,0.1-0.3,0.2c-0.1,0.1-0.2,0.1-0.3,0.2
	C49.2,48,49,48.5,49,49c0,0.5,0.2,1,0.6,1.4c0.1,0.1,0.2,0.2,0.3,0.2c0.1,0.1,0.2,0.1,0.3,0.2c0.1,0.1,0.2,0.1,0.4,0.1
	c0.1,0,0.3,0,0.4,0c0.5,0,1-0.2,1.4-0.6C52.8,50,53,49.5,53,49c0-0.5-0.2-1-0.6-1.4C52,47.1,51.3,46.9,50.6,47z M50.6,55
	c-0.1,0-0.2,0.1-0.4,0.1c-0.1,0.1-0.2,0.1-0.3,0.2c-0.1,0.1-0.2,0.2-0.3,0.2c-0.1,0.1-0.2,0.2-0.2,0.3c-0.1,0.1-0.1,0.2-0.2,0.3
	c-0.1,0.1-0.1,0.2-0.1,0.4c0,0.1,0,0.3,0,0.4c0,0.5,0.2,1,0.6,1.4C50,58.8,50.5,59,51,59c0.1,0,0.3,0,0.4,0c0.1,0,0.3-0.1,0.4-0.1
	s0.2-0.1,0.3-0.2c0.1-0.1,0.2-0.2,0.3-0.2C52.8,58,53,57.5,53,57s-0.2-1-0.6-1.4C52,55.1,51.3,54.9,50.6,55z M58.8,40.2
	c0-0.1-0.1-0.2-0.2-0.3c-0.1-0.1-0.2-0.2-0.2-0.3c-0.1-0.1-0.2-0.2-0.3-0.2c-0.1-0.1-0.2-0.1-0.3-0.2c-0.1-0.1-0.2-0.1-0.4-0.1
	c-0.3-0.1-0.5-0.1-0.8,0c-0.1,0-0.2,0.1-0.4,0.1c-0.1,0-0.2,0.1-0.3,0.2c-0.1,0.1-0.2,0.1-0.3,0.2C55.2,40,55,40.5,55,41
	c0,0.5,0.2,1,0.6,1.4C56,42.8,56.5,43,57,43s1-0.2,1.4-0.6c0.1-0.1,0.2-0.2,0.2-0.3c0.1-0.1,0.1-0.2,0.2-0.4c0-0.1,0.1-0.2,0.1-0.4
	c0-0.1,0-0.3,0-0.4c0-0.1,0-0.3,0-0.4S58.9,40.4,58.8,40.2z M58.1,47.3c-0.1-0.1-0.2-0.1-0.3-0.2c-0.1-0.1-0.2-0.1-0.4-0.1
	c-0.3-0.1-0.5-0.1-0.8,0c-0.1,0-0.3,0.1-0.4,0.1c-0.1,0-0.2,0.1-0.3,0.2c-0.1,0.1-0.2,0.1-0.3,0.2c-0.1,0.1-0.2,0.2-0.2,0.3
	c-0.1,0.1-0.1,0.2-0.2,0.4c0,0.1-0.1,0.2-0.1,0.4c0,0.1,0,0.3,0,0.4c0,0.1,0,0.3,0,0.4c0,0.1,0.1,0.2,0.1,0.4
	c0.1,0.1,0.1,0.2,0.2,0.3s0.2,0.2,0.2,0.3c0.1,0.1,0.2,0.2,0.3,0.2c0.1,0.1,0.2,0.1,0.3,0.2c0.1,0.1,0.2,0.1,0.4,0.1
	c0.1,0,0.3,0,0.4,0s0.3,0,0.4,0c0.1,0,0.2-0.1,0.4-0.1c0.1,0,0.2-0.1,0.3-0.2c0.1-0.1,0.2-0.1,0.3-0.2C58.8,50,59,49.5,59,49
	c0-0.5-0.2-1-0.6-1.4C58.3,47.5,58.2,47.4,58.1,47.3z M58.8,56.2c0-0.1-0.1-0.2-0.2-0.3c-0.1-0.1-0.2-0.2-0.2-0.3
	c-0.7-0.8-2.1-0.8-2.8,0C55.2,56,55,56.5,55,57s0.2,1,0.6,1.4c0.2,0.2,0.4,0.3,0.6,0.4C56.5,59,56.7,59,57,59c0.5,0,1-0.2,1.4-0.6
	C58.8,58,59,57.5,59,57c0-0.1,0-0.3,0-0.4C58.9,56.5,58.9,56.3,58.8,56.2z M62.6,39c-0.1,0-0.2,0.1-0.4,0.1c-0.1,0-0.2,0.1-0.3,0.2
	c-0.1,0.1-0.2,0.1-0.3,0.2C61.2,40,61,40.5,61,41c0,0.1,0,0.3,0,0.4c0,0.1,0.1,0.2,0.1,0.4c0.1,0.1,0.1,0.2,0.2,0.3
	c0.1,0.1,0.2,0.2,0.2,0.3c0.1,0.1,0.2,0.2,0.3,0.2c0.1,0.1,0.2,0.1,0.3,0.2c0.1,0.1,0.2,0.1,0.4,0.1c0.1,0,0.3,0,0.4,0
	c0.5,0,1-0.2,1.4-0.6C64.8,42,65,41.5,65,41c0-0.5-0.2-1-0.6-1.4C64,39.1,63.3,38.9,62.6,39z M64.1,47.3c-0.1-0.1-0.2-0.1-0.3-0.2
	c-0.1-0.1-0.2-0.1-0.4-0.1c-0.3-0.1-0.5-0.1-0.8,0c-0.1,0-0.2,0.1-0.4,0.1c-0.1,0-0.2,0.1-0.3,0.2c-0.1,0.1-0.2,0.1-0.3,0.2
	c-0.1,0.1-0.2,0.2-0.2,0.3c-0.1,0.1-0.1,0.2-0.2,0.3c0,0.1-0.1,0.2-0.1,0.4c0,0.1,0,0.3,0,0.4c0,0.1,0,0.3,0,0.4
	c0,0.1,0.1,0.2,0.1,0.4c0.1,0.1,0.1,0.2,0.2,0.3c0.1,0.1,0.2,0.2,0.2,0.3c0.1,0.1,0.2,0.2,0.3,0.2c0.1,0.1,0.2,0.1,0.3,0.2
	c0.1,0.1,0.2,0.1,0.4,0.1c0.1,0,0.3,0,0.4,0c0.5,0,1-0.2,1.4-0.6c0.1-0.1,0.2-0.2,0.2-0.3c0.1-0.1,0.1-0.2,0.2-0.3
	c0-0.1,0.1-0.2,0.1-0.4c0-0.1,0-0.3,0-0.4c0-0.5-0.2-1-0.6-1.4C64.3,47.5,64.2,47.4,64.1,47.3z M62.6,55c-0.1,0-0.2,0.1-0.4,0.1
	c-0.1,0.1-0.2,0.1-0.3,0.2c-0.1,0.1-0.2,0.2-0.3,0.2c-0.1,0.1-0.2,0.2-0.2,0.3c-0.1,0.1-0.1,0.2-0.2,0.3c0,0.1-0.1,0.2-0.1,0.4
	c0,0.1,0,0.3,0,0.4c0,0.5,0.2,1,0.6,1.4c0.2,0.2,0.4,0.3,0.6,0.4C62.5,59,62.7,59,63,59c0.3,0,0.5,0,0.8-0.2
	c0.2-0.1,0.5-0.2,0.6-0.4C64.8,58,65,57.5,65,57s-0.2-1-0.6-1.4C64,55.1,63.3,54.9,62.6,55z M93,30v63c0,1.1-0.9,2-2,2H71H37H9
	c-1.1,0-2-0.9-2-2V43c0-1.1,0.9-2,2-2h3v-6c0,0,0-0.1,0-0.1c0-0.1,0-0.1,0-0.2c0-0.1,0-0.1,0.1-0.2c0-0.1,0-0.1,0.1-0.2
	c0-0.1,0.1-0.1,0.1-0.2c0,0,0-0.1,0.1-0.1l4.4-7c-2.8-3.9-2.4-9.4,1.1-12.8c0.8-0.8,2-0.8,2.8,0l11.3,11.3c0.8,0.8,0.8,2,0,2.8
	c-1.9,1.9-4.5,2.9-7.1,2.9c-1.8,0-3.6-0.5-5.2-1.4L16,35.6V41h19v-8c0-1.1,0.9-2,2-2h6V19c0-1.1,0.9-2,2-2h7V7c0-1.1,0.9-2,2-2
	s2,0.9,2,2v10h7c1.1,0,2,0.9,2,2v12h4V10c0-0.8,0.5-1.5,1.2-1.8C71,7.8,71.8,8,72.4,8.6L84,20.2V13c0-1.1,0.9-2,2-2s2,0.9,2,2v11.2
	l4.4,4.4C92.8,29,93,29.5,93,30z M20.6,25.4c1.8,1.8,4.6,2.2,6.8,1.2l-8-8C18.4,20.8,18.7,23.6,20.6,25.4z M47,31h14V21H47V31z
	 M11,91h24V45H11V91z M39,91h30V35h-6H45h-6v8V91z M89,30.8l-16-16V33v58h16V30.8z M79,87h4c1.1,0,2-0.9,2-2s-0.9-2-2-2h-4
	c-1.1,0-2,0.9-2,2S77.9,87,79,87z M79,79h4c1.1,0,2-0.9,2-2s-0.9-2-2-2h-4c-1.1,0-2,0.9-2,2S77.9,79,79,79z M79,71h4
	c1.1,0,2-0.9,2-2s-0.9-2-2-2h-4c-1.1,0-2,0.9-2,2S77.9,71,79,71z M79,63h4c1.1,0,2-0.9,2-2s-0.9-2-2-2h-4c-1.1,0-2,0.9-2,2
	S77.9,63,79,63z M79,55h4c1.1,0,2-0.9,2-2s-0.9-2-2-2h-4c-1.1,0-2,0.9-2,2S77.9,55,79,55z M79,47h4c1.1,0,2-0.9,2-2s-0.9-2-2-2h-4
	c-1.1,0-2,0.9-2,2S77.9,47,79,47z M79,39h4c1.1,0,2-0.9,2-2s-0.9-2-2-2h-4c-1.1,0-2,0.9-2,2S77.9,39,79,39z" fill="orange"/>
</svg>
