<?xml version="1.0" encoding="iso-8859-1"?>
<!-- Generator: Adobe Illustrator 19.0.0, SVG Export Plug-In . SVG Version: 6.00 Build 0)  -->
<svg version="1.1" id="Capa_1" xmlns="http://www.w3.org/2000/svg" x="0px" y="0px"
     viewBox="0 0 480 480" style="enable-background:new 0 0 480 480;" xml:space="preserve">
<path style="fill:#29ABE2;" d="M8,72h80v336H8V72z"/>
    <path style="fill:#FF3D53;" d="M88,72h96v336H88V72z"/>
    <path style="fill:#55D08F;" d="M184,72h96v336h-96V72z"/>
    <path style="fill:#83D8EF;" d="M280,72h96v336h-96V72z"/>
    <path style="fill:#FFBC44;" d="M376,72h96v336h-96V72z"/>
    <path style="fill:#29ABE2;" d="M8,168h80v48H8V168z"/>
    <g>
	<path style="fill:#7FCDEE;" d="M8,120h80v48H8V120z"/>
        <path style="fill:#7FCDEE;" d="M8,216h80v48H8V216z"/>
</g>
    <path style="fill:#29ABE2;" d="M8,264h80v48H8V264z"/>
    <path style="fill:#7FCDEE;" d="M8,312h80v48H8V312z"/>
    <g>
	<path style="fill:#FF8B98;" d="M88,120h96v48H88V120z"/>
        <path style="fill:#FF8B98;" d="M88,216h96v48H88V216z"/>
        <path style="fill:#FF8B98;" d="M88,312h96v48H88V312z"/>
</g>
    <g>
	<path style="fill:#77D9A5;" d="M184,120h96v48h-96V120z"/>
        <path style="fill:#77D9A5;" d="M184,216h96v48h-96V216z"/>
        <path style="fill:#77D9A5;" d="M184,312h96v48h-96V312z"/>
</g>
    <g>
	<path style="fill:#B5E8F5;" d="M280,120h96v48h-96V120z"/>
        <path style="fill:#B5E8F5;" d="M280,216h96v48h-96V216z"/>
        <path style="fill:#B5E8F5;" d="M280,312h96v48h-96V312z"/>
</g>
    <g>
	<path style="fill:#FFC969;" d="M376,120h96v48h-96V120z"/>
        <path style="fill:#FFC969;" d="M376,216h96v48h-96V216z"/>
        <path style="fill:#FFC969;" d="M376,312h96v48h-96V312z"/>
</g>
    <path style="fill:#29ABE2;" d="M8,360h80v48H8V360z"/>
    <path d="M472,64H8c-4.418,0-8,3.582-8,8v336c0,4.418,3.582,8,8,8h464c4.418,0,8-3.582,8-8V72C480,67.582,476.418,64,472,64z
	 M464,112h-80V80h80V112z M192,80h80v32h-80V80z M176,112H96V80h80V112z M288,80h80v32h-80V80z M80,80v32H16V80H80z M16,304v-32h64
	v32H16z M80,320v32H16v-32H80z M16,256v-32h64v32H16z M16,208v-32h64v32H16z M16,160v-32h64v32H16z M16,400v-32h64v32H16z M96,400
	V128h80v272H96z M192,400V128h80v272H192z M288,400V128h80v272H288z M384,400V128h80v272H384z"/>
    <path d="M120,152h32c4.418,0,8-3.582,8-8s-3.582-8-8-8h-32c-4.418,0-8,3.582-8,8S115.582,152,120,152z"/>
    <path d="M152,232h-32c-4.418,0-8,3.582-8,8s3.582,8,8,8h32c4.418,0,8-3.582,8-8S156.418,232,152,232z"/>
    <path d="M152,328h-32c-4.418,0-8,3.582-8,8s3.582,8,8,8h32c4.418,0,8-3.582,8-8S156.418,328,152,328z"/>
    <path d="M344,328h-32c-4.418,0-8,3.582-8,8s3.582,8,8,8h32c4.418,0,8-3.582,8-8S348.418,328,344,328z"/>
    <path d="M152,376h-32c-4.418,0-8,3.582-8,8s3.582,8,8,8h32c4.418,0,8-3.582,8-8S156.418,376,152,376z"/>
    <path d="M440,376h-32c-4.418,0-8,3.582-8,8s3.582,8,8,8h32c4.418,0,8-3.582,8-8S444.418,376,440,376z"/>
    <path d="M440,232h-32c-4.418,0-8,3.582-8,8s3.582,8,8,8h32c4.418,0,8-3.582,8-8S444.418,232,440,232z"/>
    <path d="M440,280h-32c-4.418,0-8,3.582-8,8s3.582,8,8,8h32c4.418,0,8-3.582,8-8S444.418,280,440,280z"/>
    <path d="M216,200h32c4.418,0,8-3.582,8-8s-3.582-8-8-8h-32c-4.418,0-8,3.582-8,8S211.582,200,216,200z"/>
    <path d="M248,232h-32c-4.418,0-8,3.582-8,8s3.582,8,8,8h32c4.418,0,8-3.582,8-8S252.418,232,248,232z"/>
    <path d="M248,280h-32c-4.418,0-8,3.582-8,8s3.582,8,8,8h32c4.418,0,8-3.582,8-8S252.418,280,248,280z"/>
    <path d="M312,200h32c4.418,0,8-3.582,8-8s-3.582-8-8-8h-32c-4.418,0-8,3.582-8,8S307.582,200,312,200z"/>
    <g>
</g>
    <g>
</g>
    <g>
</g>
    <g>
</g>
    <g>
</g>
    <g>
</g>
    <g>
</g>
    <g>
</g>
    <g>
</g>
    <g>
</g>
    <g>
</g>
    <g>
</g>
    <g>
</g>
    <g>
</g>
    <g>
</g>
</svg>
