<svg id="Filled" height="512" viewBox="0 0 512 512" width="512" xmlns="http://www.w3.org/2000/svg">
    <path d="m248 24h48v32h-48z" fill="#eb423f"/>
    <path d="m32 200h448v288h-448z" fill="#fbdac1"/>
    <path d="m480 168h-448l224-80z" fill="#d48031"/>
    <path d="m240 344h32v80h-32z" fill="#824c33"/>
    <g fill="#ad6643">
        <path d="m160 344a16 16 0 0 1 16 16v32a0 0 0 0 1 0 0h-32a0 0 0 0 1 0 0v-32a16 16 0 0 1 16-16z"/>
        <path d="m160 264a16 16 0 0 1 16 16v32a0 0 0 0 1 0 0h-32a0 0 0 0 1 0 0v-32a16 16 0 0 1 16-16z"/>
        <path d="m256 264a16 16 0 0 1 16 16v32a0 0 0 0 1 0 0h-32a0 0 0 0 1 0 0v-32a16 16 0 0 1 16-16z"/>
        <path d="m352 344a16 16 0 0 1 16 16v32a0 0 0 0 1 0 0h-32a0 0 0 0 1 0 0v-32a16 16 0 0 1 16-16z"/>
        <path d="m352 264a16 16 0 0 1 16 16v32a0 0 0 0 1 0 0h-32a0 0 0 0 1 0 0v-32a16 16 0 0 1 16-16z"/>
    </g>
    <path d="m24 168h464v32h-464z" fill="#f79539"/>
    <path d="m32 392h80v32h-80z" fill="#f7a565"/>
    <path d="m400 392h80v32h-80z" fill="#f7a565"/>
    <path d="m400 424h88v64h-88z" fill="#d48031"/>
    <path d="m24 424h88v64h-88z" fill="#d48031"/>
    <path d="m96 456h320v32h-320z" fill="#95573a"/>
    <path d="m112 424h288v32h-288z" fill="#ad6643"/>
    <path d="m32 200v224h88v-170.529a47.948 47.948 0 0 1 40-21.471 47.947 47.947 0 0 1 40 21.471v170.529h16v-170.529a47.948 47.948 0 0 1 40-21.471 47.947 47.947 0 0 1 40 21.471v170.529h16v-170.529a47.948 47.948 0 0 1 40-21.471 47.947 47.947 0 0 1 40 21.471v170.529h88v-224z"
          fill="#fbb06a"/>
    <path d="m160 336a24.027 24.027 0 0 0 -24 24v32a8 8 0 0 0 8 8h32a8 8 0 0 0 8-8v-32a24.027 24.027 0 0 0 -24-24zm8 48h-16v-24a8 8 0 0 1 16 0z"/>
    <path d="m160 256a24.027 24.027 0 0 0 -24 24v32a8 8 0 0 0 8 8h32a8 8 0 0 0 8-8v-32a24.027 24.027 0 0 0 -24-24zm8 48h-16v-24a8 8 0 0 1 16 0z"/>
    <path d="m256 256a24.027 24.027 0 0 0 -24 24v32a8 8 0 0 0 8 8h32a8 8 0 0 0 8-8v-32a24.027 24.027 0 0 0 -24-24zm8 48h-16v-24a8 8 0 0 1 16 0z"/>
    <path d="m352 336a24.027 24.027 0 0 0 -24 24v32a8 8 0 0 0 8 8h32a8 8 0 0 0 8-8v-32a24.027 24.027 0 0 0 -24-24zm8 48h-16v-24a8 8 0 0 1 16 0z"/>
    <path d="m352 256a24.027 24.027 0 0 0 -24 24v32a8 8 0 0 0 8 8h32a8 8 0 0 0 8-8v-32a24.027 24.027 0 0 0 -24-24zm8 48h-16v-24a8 8 0 0 1 16 0z"/>
    <path d="m488 160h-6.615l-217.385-77.637v-18.363h40a8 8 0 0 0 8-8v-32a8 8 0 0 0 -8-8h-48a8 8 0 0 0 -8 8v58.363l-217.385 77.637h-6.615a8 8 0 0 0 -8 8v32a8 8 0 0 0 8 8v208a8 8 0 0 0 -8 8v64a8 8 0 0 0 8 8h464a8 8 0 0 0 8-8v-64a8 8 0 0 0 -8-8v-208a8 8 0 0 0 8-8v-32a8 8 0 0 0 -8-8zm-224-128h32v16h-32zm-232 160v-16h448v16zm224-95.5 177.815 63.5h-355.63zm-216 303.5h64v16h-64zm368 64v16h-304v-16zm-288-16v-16h272v16zm144-32h-16v-64h16zm128 0h-80v-136a40 40 0 0 1 80 0zm-96 0h-16v-72a8 8 0 0 0 -8-8h-32a8 8 0 0 0 -8 8v72h-16v-136a40 40 0 0 1 80 0zm-96 0h-80v-136a40 40 0 0 1 80 0zm-168 16h72v16h-8a8 8 0 0 0 -8 8v24h-56zm448 48h-56v-24a8 8 0 0 0 -8-8h-8v-16h72zm-72-64v-16h64v16zm64-32h-64v-104a55.987 55.987 0 0 0 -104-28.81 55.964 55.964 0 0 0 -96 0 55.987 55.987 0 0 0 -104 28.81v104h-64v-176h432z"/>
</svg>