<svg id="Flat" height="512" viewBox="0 0 512 512" width="512" xmlns="http://www.w3.org/2000/svg">
    <path d="m248 24h16v80h-16z" fill="#ad6643"/>
    <path d="m248 24h48v32h-48z" fill="#eb423f"/>
    <path d="m32 200h448v288h-448z" fill="#fbdac1"/>
    <path d="m480 168h-448l224-80z" fill="#d48031"/>
    <path d="m240 344h32v80h-32z" fill="#824c33"/>
    <g fill="#ad6643">
        <path d="m160 344a16 16 0 0 1 16 16v32a0 0 0 0 1 0 0h-32a0 0 0 0 1 0 0v-32a16 16 0 0 1 16-16z"/>
        <path d="m160 264a16 16 0 0 1 16 16v32a0 0 0 0 1 0 0h-32a0 0 0 0 1 0 0v-32a16 16 0 0 1 16-16z"/>
        <path d="m256 264a16 16 0 0 1 16 16v32a0 0 0 0 1 0 0h-32a0 0 0 0 1 0 0v-32a16 16 0 0 1 16-16z"/>
        <path d="m352 344a16 16 0 0 1 16 16v32a0 0 0 0 1 0 0h-32a0 0 0 0 1 0 0v-32a16 16 0 0 1 16-16z"/>
        <path d="m352 264a16 16 0 0 1 16 16v32a0 0 0 0 1 0 0h-32a0 0 0 0 1 0 0v-32a16 16 0 0 1 16-16z"/>
    </g>
    <path d="m24 168h464v32h-464z" fill="#f79539"/>
    <path d="m32 392h80v32h-80z" fill="#f7a565"/>
    <path d="m400 392h80v32h-80z" fill="#f7a565"/>
    <path d="m24 424h88v64h-88z" fill="#d48031"/>
    <path d="m96 456h320v32h-320z" fill="#95573a"/>
    <path d="m112 424h288v32h-288z" fill="#ad6643"/>
    <path d="m32 200v224h88v-170.529a47.948 47.948 0 0 1 40-21.471 47.947 47.947 0 0 1 40 21.471v170.529h16v-170.529a47.948 47.948 0 0 1 40-21.471 47.947 47.947 0 0 1 40 21.471v170.529h16v-170.529a47.948 47.948 0 0 1 40-21.471 47.947 47.947 0 0 1 40 21.471v170.529h88v-224z"
          fill="#fbb06a"/>
</svg>